<?xml version="1.0" encoding="UTF-8"?>
<svg version="1.1" xmlns="http://www.w3.org/2000/svg" width="900" height="900">
<path d="M0 0 C297 0 594 0 900 0 C900 297 900 594 900 900 C603 900 306 900 0 900 C0 603 0 306 0 0 Z " fill="#FEFEFE" transform="translate(0,0)"/>
<path d="M0 0 C0.71211639 0.35810257 1.42423279 0.71620514 2.15792847 1.0851593 C2.69636383 1.35700546 3.23479919 1.62885162 3.78955078 1.90893555 C3.83528569 46.33542397 3.87054834 90.76190991 3.89168144 135.18841722 C3.89418298 140.42826451 3.89677161 145.66811176 3.89941406 150.90795898 C3.89993868 151.95115892 3.9004633 152.99435885 3.90100382 154.06917091 C3.90971662 170.98102691 3.92549139 187.89286938 3.94385637 204.80471735 C3.96253113 222.14589645 3.97366236 239.48706845 3.97772777 256.8282572 C3.98047788 267.53665864 3.98917714 278.24502181 4.00538372 288.95341147 C4.0159207 296.28734192 4.0191589 303.62125246 4.01655354 310.95518993 C4.0152671 315.1923215 4.01729813 319.42938603 4.02796173 323.66650581 C4.03764 327.54019826 4.03822133 331.41377809 4.03134857 335.28747554 C4.0304982 336.69396437 4.03308111 338.10046002 4.03931715 339.50693528 C4.0472637 341.40873316 4.04185555 343.3105732 4.03564644 345.21237755 C4.03640588 346.27179727 4.03716532 347.33121699 4.03794777 348.42274034 C3.78955078 350.90893555 3.78955078 350.90893555 1.78955078 352.90893555 C-3.3317704 352.10030589 -8.20305818 350.6216284 -13.15698242 349.12744141 C-21.77714066 346.53163672 -30.33815968 344.49359271 -39.21044922 342.90893555 C-40.53246519 342.62826749 -41.85407022 342.34565799 -43.17529297 342.0612793 C-64.05508275 337.86466255 -88.27099295 338.09782458 -109.21044922 341.90893555 C-109.94118652 342.0378418 -110.67192383 342.16674805 -111.42480469 342.29956055 C-121.48949766 344.11082794 -131.19642308 346.64269064 -140.89355469 349.89038086 C-148.9464655 352.57994437 -148.9464655 352.57994437 -153.21044922 352.90893555 C-155.87769619 350.24168858 -155.46623265 348.97067579 -155.47889137 345.24196148 C-155.48780706 344.02884122 -155.49672275 342.81572095 -155.50590861 341.56583947 C-155.50573 340.20744173 -155.50535026 338.849044 -155.50479126 337.49064636 C-155.51138663 336.05704912 -155.51883736 334.62345559 -155.52707422 333.18986684 C-155.54715212 329.23628528 -155.55455382 325.28276445 -155.55985284 321.32913911 C-155.5676477 317.07066211 -155.58680502 312.81223345 -155.60427856 308.55378723 C-155.64383784 298.26309133 -155.66394295 287.9723914 -155.68173414 277.68163845 C-155.69049449 272.8392681 -155.70122945 267.99690216 -155.71171188 263.15453529 C-155.74573841 247.06404497 -155.7747291 230.9735574 -155.78920937 214.88303661 C-155.79302934 210.70571578 -155.79686998 206.52839497 -155.80078125 202.35107422 C-155.80174873 201.31278283 -155.80271621 200.27449145 -155.80371301 199.20473669 C-155.82032244 182.37573731 -155.87100999 165.54702185 -155.93594261 148.71814653 C-156.00201875 131.45259383 -156.0381009 114.18718559 -156.04449785 96.92150575 C-156.048834 87.2223703 -156.06641702 77.52364894 -156.1174202 67.82463646 C-156.16074587 59.56639592 -156.17697937 51.30866999 -156.15748663 43.05032869 C-156.14837085 38.83471334 -156.15233606 34.62016068 -156.19100952 30.40468979 C-156.22609583 26.54700067 -156.22443009 22.69115613 -156.19321494 18.83344988 C-156.18843502 17.43636867 -156.19725474 16.03916272 -156.22087224 14.64227297 C-156.3866973 4.18868473 -156.3866973 4.18868473 -153.45103049 0.99470103 C-151.40316555 -0.31450505 -149.48412128 -1.24689956 -147.21044922 -2.09106445 C-146.39616455 -2.4893042 -145.58187988 -2.88754395 -144.74291992 -3.29785156 C-142.34395124 -4.23225111 -139.94265678 -5.14893592 -137.52294922 -6.02856445 C-136.59466309 -6.36702393 -135.66637695 -6.7054834 -134.70996094 -7.05419922 C-90.97543248 -22.23156009 -41.70510905 -21.00839117 0 0 Z " fill="#0068B2" transform="translate(526.21044921875,178.091064453125)"/>
<path d="M0 0 C2.8883003 2.8883003 2.2516348 4.93802043 2.25396729 8.98461914 C2.25864726 10.0753742 2.25864726 10.0753742 2.26342177 11.18816471 C2.27143163 13.63724311 2.26506662 16.08607578 2.25878906 18.53515625 C2.2614976 20.28587998 2.26505776 22.03660258 2.26940918 23.787323 C2.27855177 28.55167797 2.27498125 33.31594664 2.26865101 38.08030319 C2.26360067 43.05752552 2.26827976 48.03474028 2.27142334 53.01196289 C2.27506581 61.37159558 2.27025653 69.73119298 2.26074219 78.09082031 C2.2498571 87.76679723 2.25338248 97.44268987 2.264395 107.11866474 C2.27345988 115.41421641 2.27475707 123.70974265 2.26951766 132.00529766 C2.26639355 136.96514455 2.26600066 141.92495178 2.27259064 146.88479614 C2.27835188 151.54687587 2.27438971 156.20884656 2.26280212 160.87091446 C2.26014897 162.5858352 2.26093172 164.30076506 2.26532745 166.01568222 C2.27075867 168.34904062 2.26397865 170.68204526 2.25396729 173.01538086 C2.25283621 174.97766884 2.25283621 174.97766884 2.25168228 176.979599 C2 180 2 180 0 182 C-6.12148551 181.65365279 -11.70761999 179.57826669 -17.5 177.6875 C-29.17103554 173.99982286 -40.88889706 171.68752429 -53 170 C-54.04426147 169.8453125 -54.04426147 169.8453125 -55.10961914 169.6875 C-86.9319406 165.49197322 -121.25375215 170.13164937 -151.08666992 181.56445312 C-153.41373553 182.09418198 -154.7846452 181.8557497 -157 181 C-158.48240779 178.03518442 -158.13628663 175.36989785 -158.14717102 172.06007385 C-158.15084771 171.33769293 -158.1545244 170.61531201 -158.1583125 169.87104076 C-158.1693703 167.43819 -158.17319667 165.00538192 -158.17700195 162.57250977 C-158.18326488 160.83326074 -158.18991152 159.09401305 -158.19691467 157.35476685 C-158.21433692 152.62136839 -158.22487913 147.88798005 -158.2331202 143.15455747 C-158.23826631 140.19998514 -158.24434212 137.24541597 -158.25063133 134.29084587 C-158.26968428 125.05429071 -158.28391687 115.81774357 -158.2922433 106.58117253 C-158.30202608 95.90436346 -158.32837225 85.22776114 -158.36874419 74.55102497 C-158.39885149 66.30726743 -158.41370692 58.06356935 -158.41702431 49.81975788 C-158.4193804 44.89165805 -158.42841338 39.96377906 -158.45348549 35.03573799 C-158.4766781 30.40231433 -158.48103523 25.76925832 -158.47072411 21.13579178 C-158.47022652 19.43256473 -158.476612 17.72932012 -158.49028015 16.02614784 C-158.50786257 13.70595499 -158.50096203 11.38710135 -158.48774719 9.06690979 C-158.49013555 7.76701394 -158.4925239 6.46711809 -158.49498463 5.12783146 C-158 2 -158 2 -156.11101055 0.12628078 C-109.14695636 -24.93030255 -47.02339824 -24.60891175 0 0 Z " fill="#0169B2" transform="translate(720,349)"/>
<path d="M0 0 C0.82661133 0.2582959 1.65322266 0.5165918 2.50488281 0.78271484 C27.68308824 8.68308824 27.68308824 8.68308824 32 13 C32.10150554 15.28630343 32.13078311 17.57581089 32.13371277 19.86436462 C32.13597833 20.59068024 32.13824388 21.31699585 32.14057809 22.06532103 C32.14694633 24.51744013 32.14608693 26.96950436 32.14526367 29.42163086 C32.1482534 31.17220634 32.15165549 32.92278116 32.15544128 34.6733551 C32.16430434 39.44187665 32.16662036 44.21038027 32.16725707 48.97890925 C32.16820423 52.95281273 32.17188027 56.92671199 32.17542917 60.90061384 C32.18358245 70.27220501 32.1860126 79.64378656 32.18530273 89.01538086 C32.18470167 98.69871587 32.19525713 108.38199522 32.2110464 118.06531614 C32.22409993 126.36508922 32.22948756 134.66484405 32.22884732 142.96462733 C32.2285917 147.92784838 32.23147844 152.89102 32.24202538 157.85423088 C32.2516697 162.52039219 32.2518109 167.18645645 32.24450874 171.85262108 C32.24345832 173.56915681 32.24585269 175.28569846 32.2518692 177.00222397 C32.25952789 179.33781597 32.25498546 181.67306764 32.24723816 184.00865173 C32.24778293 185.31814254 32.24832769 186.62763334 32.24888897 187.97680569 C32 191 32 191 30 193 C24.43195218 192.63917352 19.44682181 190.9587629 14.1875 189.1875 C-27.40639888 175.70589775 -75.26164287 175.59149326 -116.38085938 191.20800781 C-120.27218491 192.64626859 -123.02713579 193.51133441 -127 192 C-128.48608942 189.02782116 -128.12260065 186.35732005 -128.12025452 183.03988647 C-128.12110894 182.31538886 -128.12196337 181.59089124 -128.12284368 180.84443915 C-128.12449739 178.40456879 -128.11897889 175.96476642 -128.11352539 173.52490234 C-128.11324347 171.78078717 -128.11340135 170.03667187 -128.1139679 168.29255676 C-128.11425568 163.54694845 -128.10836204 158.80136523 -128.10139394 154.05576277 C-128.09515721 149.10029698 -128.09455635 144.14483067 -128.09336853 139.18936157 C-128.09025616 129.80064968 -128.08204403 120.41194938 -128.07201904 111.02324259 C-128.06085499 100.33658128 -128.05534672 89.64991942 -128.05032361 78.96325374 C-128.03986135 56.97549601 -128.02226372 34.98774873 -128 13 C-125.4453204 11.70476808 -122.88878977 10.41344056 -120.33105469 9.12426758 C-119.25294022 8.57691326 -119.25294022 8.57691326 -118.15304565 8.01850128 C-112.97203991 5.41235953 -107.83423292 3.28184435 -102.25 1.6875 C-101.44401367 1.44733154 -100.63802734 1.20716309 -99.80761719 0.9597168 C-97.54239472 0.29156256 -95.27189629 -0.35501249 -93 -1 C-91.989375 -1.30679688 -90.97875 -1.61359375 -89.9375 -1.9296875 C-61.14308641 -10.04904249 -28.40164397 -9.11985642 0 0 Z " fill="#0068B2" transform="translate(690,559)"/>
<path d="M0 0 C3.44996528 0.41731689 6.68890999 1.46828531 9.9921875 2.5234375 C20.94604669 5.9723762 31.66397836 9.08755113 43 11 C44.54240356 11.26961548 44.54240356 11.26961548 46.1159668 11.54467773 C55.70527841 13.08074812 65.05833531 13.31845433 74.75 13.25 C75.54569397 13.24656586 76.34138794 13.24313171 77.16119385 13.23959351 C100.50183794 13.1214212 122.26507018 9.7442447 144.54711914 2.52416992 C148.48128301 1.28309142 151.87443893 0.68312709 156 1 C157.90655421 2.90655421 157.15575973 6.31778904 157.17408752 8.84417725 C157.18383595 9.93047562 157.18383595 9.93047562 157.19378132 11.03871942 C157.21428367 13.48380956 157.22742738 15.92888293 157.24047852 18.37402344 C157.25328331 20.11973303 157.26641863 21.86544022 157.27986145 23.61114502 C157.39583185 39.55644686 157.45239563 55.5023797 157.49662876 71.44802475 C157.52989024 83.24197162 157.5894747 95.03515173 157.68413979 106.82876945 C157.74839908 115.11329012 157.78215469 123.39760144 157.79337829 131.68236184 C157.80095094 136.63432058 157.82223279 141.58535408 157.87640572 146.53704071 C157.92677506 151.19618916 157.93946897 155.85392052 157.92315483 160.51329803 C157.92375954 162.22379716 157.93808559 163.93435444 157.96710205 165.64460754 C158.1752161 178.58728465 158.1752161 178.58728465 155.24785995 182.10622978 C153.17479033 183.43749787 151.34435744 184.26998843 149 185 C148.14680176 185.38365723 147.29360352 185.76731445 146.41455078 186.16259766 C145.68220215 186.41058105 144.94985352 186.65856445 144.1953125 186.9140625 C143.36386719 187.20023438 142.53242188 187.48640625 141.67578125 187.78125 C140.41314453 188.19890625 140.41314453 188.19890625 139.125 188.625 C138.29097656 188.91117188 137.45695313 189.19734375 136.59765625 189.4921875 C91.52021012 204.81991261 44.42590782 203.5845185 1 183 C0.01 182.34 -0.98 181.68 -2 181 C-2.37473011 177.96398163 -2.37473011 177.96398163 -2.3742218 173.97741699 C-2.37819621 173.2461634 -2.38217061 172.51490981 -2.38626546 171.76149702 C-2.39592978 169.29848559 -2.38404584 166.83604266 -2.37231445 164.37304688 C-2.37474106 162.61247034 -2.37845911 160.85189519 -2.38337708 159.09132385 C-2.39280766 154.30006535 -2.38334251 149.50901036 -2.37004495 144.71776772 C-2.35875659 139.71252015 -2.36283592 134.70728299 -2.36479187 129.70202637 C-2.36567568 121.29529481 -2.35457638 112.88864377 -2.33618164 104.48193359 C-2.3150127 94.75142067 -2.31150362 85.02102573 -2.3177436 75.29049444 C-2.32343101 65.94446594 -2.31779896 56.59847915 -2.30657005 47.25245667 C-2.30191579 43.26842989 -2.30105378 39.28442855 -2.3031559 35.30039978 C-2.30503446 30.6120461 -2.29696834 25.92381314 -2.2810955 21.23548698 C-2.27683958 19.51089413 -2.27601083 17.78628906 -2.27878571 16.06169319 C-2.28198941 13.71518901 -2.27297193 11.36904966 -2.26069641 9.02258301 C-2.25864354 7.70701668 -2.25659067 6.39145035 -2.25447559 5.03601837 C-2 2 -2 2 0 0 Z " fill="#0068B2" transform="translate(182,552)"/>
<path d="M0 0 C0.81364014 0.27231445 1.62728027 0.54462891 2.46557617 0.82519531 C3.24392822 1.09944336 4.02228027 1.37369141 4.82421875 1.65625 C5.49928467 1.89150391 6.17435059 2.12675781 6.86987305 2.36914062 C7.67593994 2.74232422 8.48200684 3.11550781 9.3125 3.5 C9.95818089 3.70016315 10.60386179 3.90032629 11.26910877 4.10655499 C13.97375432 5.24650951 15.42397117 6.22677038 17.3125 8.5 C18.55113744 14.13973787 18.32302635 19.7503333 18.22070312 25.49926758 C18.21844612 27.26352841 18.21971401 29.02779676 18.22424316 30.79205322 C18.22653934 35.57945285 18.17949606 40.36525017 18.1236515 45.15227723 C18.07365254 50.15569075 18.06894262 55.15914072 18.05944824 60.1627655 C18.03457965 69.63672469 17.96892587 79.10994566 17.88865232 88.58357972 C17.79924373 99.36935942 17.75524988 110.15517432 17.71508884 120.94123232 C17.63146009 143.1279003 17.49073976 165.31390366 17.3125 187.5 C12.60456474 188.63990059 9.4859413 187.88564901 5 186.3125 C3.56758175 185.83887784 2.13394762 185.36891964 0.69921875 184.90234375 C-0.02990723 184.66499512 -0.7590332 184.42764648 -1.51025391 184.18310547 C-44.31509456 170.75319471 -92.57900539 171.7308089 -134.515625 187.93359375 C-136.99099241 188.5791482 -138.31154056 188.38835652 -140.6875 187.5 C-142.59548261 185.59201739 -141.8264169 182.16837694 -141.83467102 179.6423645 C-141.83834771 178.91675445 -141.8420244 178.19114441 -141.8458125 177.44354618 C-141.85689206 174.99376988 -141.86070035 172.54403593 -141.86450195 170.09423828 C-141.87076332 168.34528466 -141.87740982 166.59633239 -141.88441467 164.84738159 C-141.90185348 160.08293316 -141.91238398 155.31849478 -141.9206202 150.55402231 C-141.92576358 147.58052678 -141.93183956 144.60703441 -141.93813133 141.63354111 C-141.95719027 132.33931742 -141.97142067 123.04510172 -141.9797433 113.75086224 C-141.98952345 103.00499307 -142.01586028 92.25932946 -142.05624419 81.51353276 C-142.08635214 73.2188404 -142.10120705 64.92420714 -142.10452431 56.62946117 C-142.10688066 51.6700479 -142.1159167 46.71085407 -142.14098549 41.75149918 C-142.16417876 37.08772077 -142.16853494 32.42430762 -142.15822411 27.7604866 C-142.15772651 26.04597258 -142.16411233 24.33144112 -142.17778015 22.61698151 C-142.19536203 20.28141134 -142.1884622 17.94717165 -142.17524719 15.61160278 C-142.17763555 14.30303377 -142.1800239 12.99446476 -142.18248463 11.64624214 C-141.6875 8.5 -141.6875 8.5 -139.812747 6.62922478 C-124.34949257 -1.58699199 -106.85420236 -6.47222156 -89.6875 -9.5 C-88.97480957 -9.62842285 -88.26211914 -9.7568457 -87.52783203 -9.88916016 C-57.80013389 -15.01709844 -28.20065976 -9.56803441 0 0 Z " fill="#0068B2" transform="translate(512.6875,563.5)"/>
<path d="M0 0 C4.30613751 0.57689881 8.25186352 1.64755746 12.37011719 2.96801758 C29.89021653 8.57746162 48.57582259 12.98771377 67.0390625 13.2734375 C67.79007233 13.28592026 68.54108215 13.29840302 69.31484985 13.31126404 C95.82486044 13.66532293 124.20070951 12.3569604 148.79296875 1.3359375 C152.20391697 -0.08494471 153.56990829 -0.2106206 157 1 C158.90655421 2.90655421 158.15575973 6.31778904 158.17408752 8.84417725 C158.18383595 9.93047562 158.18383595 9.93047562 158.19378132 11.03871942 C158.21428367 13.48380956 158.22742738 15.92888293 158.24047852 18.37402344 C158.25328331 20.11973303 158.26641863 21.86544022 158.27986145 23.61114502 C158.39583185 39.55644686 158.45239563 55.5023797 158.49662876 71.44802475 C158.52989024 83.24197162 158.5894747 95.03515173 158.68413979 106.82876945 C158.74839908 115.11329012 158.78215469 123.39760144 158.79337829 131.68236184 C158.80095094 136.63432058 158.82223279 141.58535408 158.87640572 146.53704071 C158.92677506 151.19618916 158.93946897 155.85392052 158.92315483 160.51329803 C158.92375954 162.22379716 158.93808559 163.93435444 158.96710205 165.64460754 C159.17524563 178.58912113 159.17524563 178.58912113 156.24507046 182.10678768 C154.17335875 183.43625771 152.34200366 184.26969121 150 185 C149.17298584 185.37842041 148.34597168 185.75684082 147.49389648 186.14672852 C146.79337158 186.38834717 146.09284668 186.62996582 145.37109375 186.87890625 C144.17081543 187.29813354 144.17081543 187.29813354 142.94628906 187.72583008 C142.11838867 188.00193115 141.29048828 188.27803223 140.4375 188.5625 C139.56706055 188.85987061 138.69662109 189.15724121 137.79980469 189.46362305 C130.28045791 191.99282027 122.70342174 194.10997443 115 196 C113.7315625 196.34160156 112.463125 196.68320312 111.15625 197.03515625 C74.40066932 206.18006437 33.61765807 197.76139459 0 182 C-1.91292253 180.08707747 -1.12625937 176.62665438 -1.12698364 174.09767151 C-1.12854363 173.36727234 -1.13010362 172.63687318 -1.13171089 171.8843407 C-1.13572355 169.41839782 -1.13253021 166.95251569 -1.12939453 164.48657227 C-1.13074847 162.72614506 -1.13252835 160.96571813 -1.13470459 159.20529175 C-1.13928018 154.40990804 -1.13748876 149.61454575 -1.1343255 144.81916165 C-1.13180215 139.81123879 -1.13413941 134.80331783 -1.13571167 129.7953949 C-1.13753361 121.38271758 -1.1351266 112.97004903 -1.13037109 104.55737305 C-1.12493019 94.81952256 -1.12668979 85.08169302 -1.1321975 75.34384304 C-1.13673005 66.99736208 -1.13737843 58.65088743 -1.13475883 50.30440563 C-1.13319661 45.31325527 -1.13300075 40.32211477 -1.13629532 35.33096504 C-1.13917602 30.63856014 -1.13719464 25.94618233 -1.13140106 21.25378036 C-1.13007446 19.52757118 -1.13046589 17.80135974 -1.13266373 16.07515144 C-1.13537918 13.72650716 -1.13198919 11.37795075 -1.12698364 9.02931213 C-1.12660662 7.71244699 -1.12622959 6.39558184 -1.12584114 5.03881168 C-1 2 -1 2 0 0 Z " fill="#0068B2" transform="translate(181,331)"/>
<path d="M0 0 C0.99 0.66 1.98 1.32 3 2 C3.37473011 5.020401 3.37473011 5.020401 3.3742218 8.98461914 C3.37819621 9.71178918 3.38217061 10.43895922 3.38626546 11.18816471 C3.39592958 13.63735771 3.38404597 16.08597898 3.37231445 18.53515625 C3.37474107 20.2858807 3.37845912 22.03660377 3.38337708 23.787323 C3.39280757 28.55172326 3.38334259 33.31591887 3.37004495 38.08030319 C3.35875649 43.05752354 3.36283593 48.03473343 3.36479187 53.01196289 C3.36567567 61.37161619 3.35457645 69.73118852 3.33618164 78.09082031 C3.3150127 87.76680185 3.31150362 97.44266474 3.3177436 107.11866474 C3.32343104 116.41236761 3.31779893 125.70602852 3.30657005 134.99972534 C3.30191583 138.96142347 3.30105376 142.92309602 3.3031559 146.88479614 C3.30503448 151.54688527 3.29696819 156.20885301 3.2810955 160.87091446 C3.27683963 162.58583194 3.2760108 164.30076171 3.27878571 166.01568222 C3.28198949 168.34904997 3.27297176 170.68205086 3.26069641 173.01538086 C3.25864354 174.32357285 3.25659067 175.63176483 3.25447559 176.979599 C3 180 3 180 1 182 C-2.625 181.625 -2.625 181.625 -6 181 C-2.25 179.875 -2.25 179.875 0 181 C0 121.27 0 61.54 0 0 Z " fill="#417CB4" transform="translate(719,570)"/>
<path d="M0 0 C0.99 0 1.98 0 3 0 C2.6757435 0.51227016 2.35148701 1.02454033 2.01740456 1.55233383 C0.64789323 4.84709648 0.73677567 7.59449245 0.7215271 11.16265869 C0.7157347 11.88478161 0.7099423 12.60690452 0.70397437 13.35090995 C0.68696819 15.77076906 0.68409736 18.19043752 0.68115234 20.61035156 C0.67185459 22.34491443 0.66168614 24.07947281 0.65071106 25.81402588 C0.62337979 30.52437308 0.60825237 35.23469032 0.59528303 39.94509602 C0.57966619 44.8672206 0.55287136 49.78928389 0.5272522 54.71136475 C0.48043879 64.0326911 0.44370707 73.35402895 0.41057932 82.67541289 C0.37237604 93.28719167 0.32296118 103.89890892 0.27259517 114.51063585 C0.1692372 136.34037848 0.07998936 158.17016006 0 180 C1.65 180 3.3 180 5 180 C4.01 180.99 4.01 180.99 3 182 C0.9375 181.75 0.9375 181.75 -1 181 C-2.48385453 178.03229094 -2.12944488 175.36615221 -2.13371277 172.05334473 C-2.13597833 171.33025824 -2.13824388 170.60717175 -2.14057809 169.86217356 C-2.14693383 167.4269799 -2.14608773 164.99184168 -2.14526367 162.55664062 C-2.14825414 160.81576973 -2.15165641 159.0748995 -2.15544128 157.33403015 C-2.16429592 152.59655854 -2.16661998 147.85910498 -2.16725707 143.1216259 C-2.16820484 139.17252552 -2.17188153 135.22342937 -2.17542917 131.27433062 C-2.18357895 121.9616935 -2.18601289 112.64906605 -2.18530273 103.33642578 C-2.18470149 93.71498583 -2.19526136 84.09360186 -2.2110464 74.47217607 C-2.22409961 66.22333781 -2.22948758 57.9745179 -2.22884732 49.72566938 C-2.22859172 44.79376224 -2.23147709 39.86190484 -2.24202538 34.93000793 C-2.25166937 30.29420187 -2.25181114 25.6584935 -2.24450874 21.0226841 C-2.24345834 19.31743541 -2.24585258 17.61218076 -2.2518692 15.90694237 C-2.25952801 13.58672982 -2.25498542 11.26685986 -2.24723816 8.94665527 C-2.24778293 7.64583763 -2.24832769 6.34501999 -2.24888897 5.00478363 C-2 2 -2 2 0 0 Z " fill="#3478B3" transform="translate(564,349)"/>
<path d="M0 0 C0.66 0 1.32 0 2 0 C1.67 59.07 1.34 118.14 1 179 C3.64 178.67 6.28 178.34 9 178 C7.3125 179.5625 7.3125 179.5625 5 181 C2.3125 180.8125 2.3125 180.8125 0 180 C-1.48497263 177.03005474 -1.12602375 174.36174003 -1.12698364 171.0466156 C-1.12854363 170.32282355 -1.13010362 169.5990315 -1.13171089 168.85330635 C-1.1357156 166.41577433 -1.13253329 163.97830403 -1.12939453 161.54077148 C-1.13074879 159.79827844 -1.13252887 158.05578567 -1.13470459 156.31329346 C-1.13927561 151.57175332 -1.1374908 146.83023487 -1.1343255 142.08869433 C-1.1318006 137.13636385 -1.13413977 132.18403527 -1.13571167 127.23170471 C-1.13753281 118.91496445 -1.13512832 110.59823306 -1.13037109 102.28149414 C-1.12492679 92.65209793 -1.12669257 83.02272288 -1.1321975 73.39332718 C-1.13672807 65.1394099 -1.13737951 56.88549901 -1.13475883 48.63158089 C-1.13319598 43.69580969 -1.13300255 38.76004845 -1.13629532 33.82427788 C-1.13917328 29.18603392 -1.13719973 24.54781739 -1.13140106 19.90957642 C-1.13007314 18.20229704 -1.13046813 16.49501537 -1.13266373 14.78773689 C-1.13537392 12.46725981 -1.13199576 10.14687206 -1.12698364 7.82640076 C-1.12660662 6.52466132 -1.12622959 5.22292189 -1.12584114 3.8817358 C-1 1 -1 1 0 0 Z " fill="#3478B4" transform="translate(563,571)"/>
<path d="M0 0 C0.66 0 1.32 0 2 0 C1.67 0.99 1.34 1.98 1 3 C0.90318715 5.35406831 0.86932469 7.71085353 0.86628723 10.06690979 C0.86402167 10.7908507 0.86175612 11.51479161 0.85942191 12.26067013 C0.85307858 14.69275777 0.85391148 17.12478975 0.85473633 19.55688477 C0.85174512 21.29790316 0.84834268 23.03892089 0.84455872 24.77993774 C0.83571245 29.51321804 0.83338039 34.24648027 0.83274293 38.97976804 C0.83179455 42.92643327 0.82811722 46.87309427 0.82457083 50.81975788 C0.81642453 60.12617865 0.81398683 69.43258975 0.81469727 78.73901367 C0.81529869 88.35309001 0.80473439 97.96711036 0.7889536 107.58117253 C0.77590076 115.8257847 0.77051239 124.07037852 0.77115268 132.31500095 C0.77140825 137.24353976 0.76852417 142.17202878 0.75797462 147.10055733 C0.74833107 151.73227279 0.74818856 156.36389048 0.75549126 160.99560928 C0.75654166 162.69924626 0.75414745 164.40288921 0.7481308 166.10651588 C0.74047204 168.4244855 0.74501451 170.7421122 0.75276184 173.06007385 C0.75221707 174.35959268 0.75167231 175.6591115 0.75111103 176.99800968 C0.68394777 180.11479088 0.68394777 180.11479088 3 182 C-0.875 181.125 -0.875 181.125 -2 180 C-2.10150554 177.71369657 -2.13078311 175.42418911 -2.13371277 173.13563538 C-2.13597833 172.40931976 -2.13824388 171.68300415 -2.14057809 170.93467897 C-2.14694633 168.48255987 -2.14608693 166.03049564 -2.14526367 163.57836914 C-2.1482534 161.82779366 -2.15165549 160.07721884 -2.15544128 158.3266449 C-2.16430434 153.55812335 -2.16662036 148.78961973 -2.16725707 144.02109075 C-2.16820423 140.04718727 -2.17188027 136.07328801 -2.17542917 132.09938616 C-2.18358245 122.72779499 -2.1860126 113.35621344 -2.18530273 103.98461914 C-2.18470167 94.30128413 -2.19525713 84.61800478 -2.2110464 74.93468386 C-2.22409993 66.63491078 -2.22948756 58.33515595 -2.22884732 50.03537267 C-2.2285917 45.07215162 -2.23147844 40.10898 -2.24202538 35.14576912 C-2.2516697 30.47960781 -2.2518109 25.81354355 -2.24450874 21.14737892 C-2.24345832 19.43084319 -2.24585269 17.71430154 -2.2518692 15.99777603 C-2.25952789 13.66218403 -2.25498546 11.32693236 -2.24723816 8.99134827 C-2.24778293 7.68185746 -2.24832769 6.37236666 -2.24888897 5.02319431 C-2 2 -2 2 0 0 Z " fill="#13649E" transform="translate(373,570)"/>
<path d="M0 0 C0 0.33 0 0.66 0 1 C-0.83547363 0.96970703 -1.67094727 0.93941406 -2.53173828 0.90820312 C-5.70387188 0.79439676 -8.876076 0.68286554 -12.04833984 0.57275391 C-14.06744276 0.50201647 -16.08645762 0.42877926 -18.10546875 0.35546875 C-34.84100056 -0.22288466 -34.84100056 -0.22288466 -51.5625 0.4375 C-52.67753906 0.51871094 -53.79257812 0.59992187 -54.94140625 0.68359375 C-57.96521236 0.92682562 -57.96521236 0.92682562 -60.71484375 1.66015625 C-63 2 -63 2 -66 0 C-43.13587269 -3.47912257 -22.8849511 -3.31418986 0 0 Z " fill="#266EA7" transform="translate(675,555)"/>
<path d="M0 0 C1.48831242 0.00667405 2.97660807 0.01863442 4.46484375 0.03515625 C5.22345703 0.03966797 5.98207031 0.04417969 6.76367188 0.04882812 C8.64326246 0.06064945 10.52281274 0.07858547 12.40234375 0.09765625 C12.40234375 0.42765625 12.40234375 0.75765625 12.40234375 1.09765625 C0.99197685 3.00791199 -10.04735357 3.32145113 -21.59765625 3.09765625 C-21.59765625 2.76765625 -21.59765625 2.43765625 -21.59765625 2.09765625 C-19.77427734 2.00677734 -19.77427734 2.00677734 -17.9140625 1.9140625 C-16.32941397 1.82967293 -14.74477923 1.74502415 -13.16015625 1.66015625 C-12.35771484 1.62083984 -11.55527344 1.58152344 -10.72851562 1.54101562 C-6.76150028 1.32341563 -3.76233709 0.10212641 0 0 Z " fill="#14619D" transform="translate(272.59765625,748.90234375)"/>
<path d="M0 0 C2.37720939 0.25707735 4.75076606 0.53017068 7.125 0.8125 C8.12273438 0.91788086 8.12273438 0.91788086 9.140625 1.02539062 C13.65487602 1.57860766 17.05325112 2.77124769 21 5 C21.78375 5.391875 22.5675 5.78375 23.375 6.1875 C23.91125 6.455625 24.4475 6.72375 25 7 C21.43364762 8.18878413 20.39620485 7.72013686 16.89453125 6.56640625 C15.91162109 6.24736328 14.92871094 5.92832031 13.91601562 5.59960938 C12.89185547 5.25736328 11.86769531 4.91511719 10.8125 4.5625 C9.77673828 4.22412109 8.74097656 3.88574219 7.67382812 3.53710938 C5.1131766 2.69929252 2.5555198 1.85331644 0 1 C0 0.67 0 0.34 0 0 Z " fill="#266EA9" transform="translate(688,521)"/>
<path d="M0 0 C3.91121498 0.68936071 7.55508596 1.78250181 11.3125 3.0625 C12.38113281 3.42472656 13.44976562 3.78695312 14.55078125 4.16015625 C15.76314453 4.57587891 15.76314453 4.57587891 17 5 C12.93714243 6.63129887 9.79897816 5.29968777 5.75 4.0625 C4.48671875 3.68222656 3.2234375 3.30195312 1.921875 2.91015625 C0.95765625 2.60980469 -0.0065625 2.30945313 -1 2 C-0.67 1.34 -0.34 0.68 0 0 Z " fill="#2268A2" transform="translate(182,552)"/>
<path d="M0 0 C4.81938524 -0.23509196 8.46298506 0.54815522 13 2 C12.67 2.66 12.34 3.32 12 4 C7.62065881 3.48041715 3.31196609 2.94324258 -1 2 C-0.67 1.34 -0.34 0.68 0 0 Z " fill="#2770AA" transform="translate(222,525)"/>
<path d="M0 0 C-1.76756294 0.39012425 -3.53924783 0.7616098 -5.3125 1.125 C-6.29863281 1.33382813 -7.28476562 1.54265625 -8.30078125 1.7578125 C-11 2 -11 2 -14 0 C-12.23243706 -0.39012425 -10.46075217 -0.7616098 -8.6875 -1.125 C-7.70136719 -1.33382813 -6.71523438 -1.54265625 -5.69921875 -1.7578125 C-3 -2 -3 -2 0 0 Z " fill="#2871AB" transform="translate(618,335)"/>
<path d="M0 0 C-1.90401138 1.90401138 -3.33425686 2.93520439 -6.046875 3.19921875 C-8.03233273 3.1886578 -10.0169914 3.09915043 -12 3 C-8.52582963 0.68388642 -4.04642977 -2.02321489 0 0 Z " fill="#CAE6F6" transform="translate(320,742)"/>
<path d="M0 0 C3.25 -0.25 3.25 -0.25 7 0 C8.32 1.32 9.64 2.64 11 4 C7.37 3.01 3.74 2.02 0 1 C0 0.67 0 0.34 0 0 Z " fill="#C6E3F4" transform="translate(684,557)"/>
<path d="M0 0 C0 0.66 0 1.32 0 2 C-1.26607607 2.53229326 -2.53810412 3.05044544 -3.8125 3.5625 C-4.52019531 3.85253906 -5.22789062 4.14257812 -5.95703125 4.44140625 C-8 5 -8 5 -11 4 C-9.5437455 3.32880451 -8.08492133 2.66318193 -6.625 2 C-5.81289063 1.62875 -5.00078125 1.2575 -4.1640625 0.875 C-2 0 -2 0 0 0 Z " fill="#1A64A1" transform="translate(384,175)"/>
<path d="M0 0 C2.1640625 -0.29296875 2.1640625 -0.29296875 4.625 -0.1875 C5.44226563 -0.16042969 6.25953125 -0.13335938 7.1015625 -0.10546875 C8.04128906 -0.05326172 8.04128906 -0.05326172 9 0 C6.09907498 1.93395001 5.10325263 2.30131941 1.8125 2.625 C0.554375 2.74875 -0.70375 2.8725 -2 3 C-1.34 2.01 -0.68 1.02 0 0 Z " fill="#1362A0" transform="translate(298,523)"/>
</svg>
